<svg version="1.1" id="Layer_1" xmlns="http://www.w3.org/2000/svg" xmlns:xlink="http://www.w3.org/1999/xlink" x="0px" y="0px"
	 width="100%" viewBox="0 0 581 113" enable-background="new 0 0 581 113" xml:space="preserve">
<path fill="#020202" opacity="1.000000" stroke="none" 
	d="
M51.000000,1.000000 
	C227.932938,1.000000 404.865875,1.000000 581.899414,1.000000 
	C581.899414,38.585087 581.899414,76.170532 581.899414,114.000000 
	C416.977448,114.000000 251.954758,114.000000 86.200699,113.727058 
	C86.024033,112.652557 86.578758,111.850990 87.443466,110.897598 
	C88.806389,109.087311 90.367218,107.557007 90.823708,105.748032 
	C92.725624,98.211029 94.295174,90.590157 96.169434,82.665764 
	C98.184021,74.178017 100.015778,66.024544 102.047440,57.585350 
	C106.582939,52.190971 107.404076,47.449551 104.645515,43.452061 
	C101.679672,39.154198 97.481461,38.333160 90.581497,40.699280 
	C89.447235,40.683956 88.688171,40.744305 87.475769,40.691792 
	C76.129860,40.365108 65.237282,40.151291 54.345169,39.682037 
	C54.286964,39.266979 54.228287,39.107365 54.281509,38.493202 
	C54.318642,31.042501 54.243874,24.046350 54.258659,16.676956 
	C54.316162,15.538764 54.284111,14.773811 54.417198,13.673885 
	C55.904289,8.495457 53.023853,4.872074 51.000000,1.000000 
M362.421021,45.148724 
	C362.051392,45.029697 361.681732,44.910667 361.412079,43.990646 
	C361.412079,36.365242 361.412079,28.739836 361.412079,20.881809 
	C357.313202,20.881809 353.402283,20.881809 349.357178,20.881809 
	C349.357178,44.984703 349.357178,68.865509 349.357178,92.725861 
	C353.415009,92.725861 357.167725,92.725861 361.299194,92.725861 
	C361.299194,89.752678 361.299194,87.053131 361.299194,84.353577 
	C364.562988,91.462318 369.980927,94.349930 377.395447,93.983643 
	C384.496307,93.632828 390.394714,90.612221 392.735870,83.915924 
	C396.897369,72.012909 396.861176,59.647026 392.830475,47.716225 
	C390.550446,40.967289 384.671417,37.858166 377.566132,37.591389 
	C371.391846,37.359562 365.969177,38.824482 362.421021,45.148724 
M440.477478,84.756454 
	C440.688446,84.303947 440.886658,83.844406 441.127136,83.408150 
	C441.155975,83.355812 441.414124,83.429840 442.137573,83.503502 
	C442.137573,86.580238 442.137573,89.743301 442.137573,92.720474 
	C446.302094,92.720474 449.888489,92.720474 453.806061,92.720474 
	C453.806061,80.639694 453.845612,68.853729 453.793854,57.068172 
	C453.750519,47.196671 449.255280,40.823097 439.548859,38.798512 
	C434.160278,37.674545 428.240845,37.623554 422.804779,38.538868 
	C414.311768,39.968906 409.189240,45.880520 408.838837,52.766434 
	C417.132721,53.165775 417.132721,53.165775 423.163879,49.222095 
	C426.802917,46.842594 434.581665,46.836800 438.006195,49.299522 
	C441.880310,52.085548 441.395599,55.977802 440.946533,59.717777 
	C433.923126,60.167366 427.227722,60.080002 420.723450,61.152206 
	C413.713867,62.307701 408.535492,66.408585 406.878418,73.784897 
	C404.998901,82.151291 408.741058,89.655510 416.113831,92.654503 
	C425.233276,96.364006 435.071564,93.417702 440.477478,84.756454 
M246.642212,37.972786 
	C236.497559,40.102859 231.253525,44.819149 230.254288,52.932350 
	C231.268219,52.932350 232.252777,52.950272 233.236511,52.929230 
	C237.373810,52.840752 241.101532,53.260838 244.855072,49.602093 
	C248.460373,46.087841 254.194916,46.501480 258.971680,48.977795 
	C263.542206,51.347187 263.063446,55.595318 262.789795,59.664005 
	C255.539169,60.171207 248.507004,60.061195 241.718292,61.292976 
	C233.545731,62.775845 228.525497,68.985497 228.062622,76.384338 
	C227.589081,83.953506 231.270386,90.079414 237.862320,92.691643 
	C245.622055,95.766640 255.353378,93.858429 259.940552,88.238106 
	C261.170715,86.730850 262.062531,84.947433 263.854645,82.112213 
	C263.854645,86.640434 263.854645,89.702980 263.854645,92.771652 
	C267.796661,92.771652 271.383911,92.771652 275.197205,92.771652 
	C275.197205,79.594246 275.406830,66.647247 275.109924,53.711876 
	C274.958527,47.116100 271.109650,42.039352 265.017273,40.178864 
	C259.448547,38.478283 253.337845,38.552464 246.642212,37.972786 
M536.985779,40.289162 
	C530.817383,43.624767 527.043579,48.797379 526.563843,55.741539 
	C526.106384,62.363548 526.105164,69.064194 526.545715,75.687546 
	C526.965942,82.005440 530.148071,87.186394 535.761475,90.301270 
	C545.595093,95.757835 555.590027,95.443504 565.196960,89.760468 
	C569.043884,87.484810 571.998352,84.094612 572.802734,78.203270 
	C568.034302,79.137199 563.319946,79.050957 559.722717,81.012863 
	C554.895813,83.645447 548.269531,85.009628 543.671631,82.251060 
	C538.570618,79.190651 538.460999,74.349960 538.900940,68.745979 
	C550.575134,68.745979 561.962769,68.745979 573.504211,68.745979 
	C573.504211,64.605759 573.747253,60.944035 573.458679,57.324711 
	C572.591309,46.448364 565.640808,38.798878 554.789917,38.054451 
	C549.163147,37.668423 543.397766,39.302116 536.985779,40.289162 
M169.544846,62.680092 
	C169.617172,67.004906 169.483505,71.345383 169.810944,75.650795 
	C170.281586,81.839615 173.359436,86.649719 178.532089,90.044006 
	C186.910782,95.542114 200.808533,95.535965 208.751678,89.469078 
	C211.940125,87.033775 214.141479,83.306099 216.792099,80.166649 
	C216.356735,79.554604 215.921371,78.942558 215.486008,78.330513 
	C211.269516,79.141113 206.546158,79.025978 202.960709,80.989113 
	C198.129807,83.634171 191.556839,85.047539 186.942062,82.274155 
	C181.890823,79.238449 181.564545,74.436768 182.151764,68.823082 
	C193.741318,68.823082 205.137344,68.823082 216.766846,68.823082 
	C216.766846,64.403702 217.083160,60.410946 216.697571,56.487171 
	C216.005478,49.444534 212.649658,43.910980 206.259094,40.477627 
	C188.359161,30.860806 169.726959,41.657902 169.544846,62.680092 
M502.759064,92.563789 
	C511.279877,89.180168 514.590271,84.354591 514.156921,75.949478 
	C513.778015,68.598938 509.551575,63.780895 501.205536,61.563980 
	C498.165710,60.756542 494.988220,60.478607 491.887421,59.886436 
	C488.960022,59.327389 485.868439,59.102970 483.175842,57.960953 
	C478.995148,56.187786 478.797821,50.666599 482.548859,48.317665 
	C485.702240,46.342991 496.165558,46.069580 498.381012,48.771641 
	C502.809082,54.172287 508.153870,51.193478 513.477112,52.068851 
	C512.529236,45.200699 508.756805,41.284500 503.324371,39.427845 
	C494.597565,36.445259 485.599792,36.445072 476.875122,39.577423 
	C470.733490,41.782394 467.919983,46.653229 467.754303,53.123100 
	C467.584961,59.734825 469.980621,64.961243 476.285553,67.557983 
	C479.467194,68.868362 482.977997,69.431763 486.379944,70.141327 
	C490.275177,70.953789 494.376556,71.107422 498.063293,72.443947 
	C499.772400,73.063553 501.551117,75.719421 501.747131,77.612740 
	C501.918549,79.268326 500.339661,82.037987 498.799591,82.769806 
	C493.324371,85.371552 486.420776,86.452660 482.230560,82.439194 
	C477.099640,77.524651 472.148499,79.715324 466.881317,79.009827 
	C467.923340,86.603645 472.267120,91.959770 479.722900,92.821686 
	C487.051331,93.668861 494.565399,92.910286 502.759064,92.563789 
M144.834229,81.756210 
	C141.172409,81.715858 136.523560,82.237396 136.220032,77.278976 
	C135.666138,68.230865 136.062561,59.124588 136.062561,49.667900 
	C143.149948,49.667900 149.729904,49.667900 156.512207,49.667900 
	C156.512207,45.864574 156.512207,42.447418 156.512207,38.434799 
	C149.624588,38.434799 142.929657,38.434799 135.914291,38.434799 
	C135.914291,32.581226 135.914291,27.314634 135.914291,21.911278 
	C131.662506,21.911278 127.756691,21.911278 123.259918,21.911278 
	C123.259918,27.559875 123.259918,32.945187 123.259918,38.640007 
	C118.066338,38.640007 113.465569,38.640007 108.734131,38.640007 
	C108.734131,42.548180 108.734131,46.098118 108.734131,50.069176 
	C113.842484,50.069176 118.598587,50.069176 123.721748,50.069176 
	C123.721748,59.803249 123.442047,69.124107 123.810417,78.419281 
	C124.104156,85.831161 128.646973,91.387512 135.794296,92.306725 
	C142.244797,93.136307 148.886154,92.481827 155.453003,92.481827 
	C155.453003,88.931267 155.453003,85.517914 155.453003,81.755997 
	C152.032883,81.755997 148.893051,81.755997 144.834229,81.756210 
M335.291229,81.773926 
	C331.295929,81.773453 327.300476,81.793205 323.305328,81.767838 
	C317.031555,81.728012 315.211334,79.990891 315.171509,73.818642 
	C315.117798,65.495415 315.156860,57.171577 315.156616,48.848003 
	C315.156342,39.571529 315.156586,30.295057 315.156586,20.849398 
	C305.090851,20.849398 295.504395,20.849398 285.706665,20.849398 
	C285.706665,24.605694 285.706665,28.162928 285.706665,32.050659 
	C291.478088,32.050659 296.920105,32.050659 302.811249,32.050659 
	C302.811249,33.998711 302.808350,35.619724 302.811707,37.240723 
	C302.839020,50.391285 302.710602,63.544735 302.952972,76.691345 
	C303.104431,84.906494 307.214355,90.871216 314.555542,92.032837 
	C322.124847,93.230553 329.930908,92.932182 338.835510,93.343979 
	C337.786041,88.660278 337.016632,85.226509 335.291229,81.773926 
z"/>
<path fill="#000101" opacity="1.000000" stroke="none" 
	d="
M41.000000,114.000000 
	C27.696957,114.000000 14.393914,114.000000 1.045435,114.000000 
	C1.045435,76.449242 1.045435,38.898411 1.045435,1.000000 
	C14.018832,1.000000 27.040758,1.000000 40.693359,1.342971 
	C37.484459,5.027124 36.274899,9.152547 37.545200,14.409604 
	C37.543716,15.506644 37.635643,16.239370 37.573433,17.416573 
	C37.502949,24.967691 37.586613,32.074333 37.334156,39.509491 
	C33.029854,40.162216 29.061670,40.486420 24.747807,40.626274 
	C23.906744,40.551754 23.411360,40.661575 22.569714,40.565933 
	C21.590940,40.151875 20.969196,39.899162 20.324194,39.741760 
	C15.826157,38.644096 11.336562,39.445599 9.603081,43.723087 
	C8.349686,46.815922 8.428695,51.310879 9.759758,54.379745 
	C11.594904,58.610825 16.067640,59.327076 20.558149,58.134132 
	C21.997314,57.751808 23.469860,57.495125 25.367344,57.333069 
	C29.765942,57.934212 33.724331,58.383255 37.545803,59.291618 
	C37.378586,70.384209 37.252899,81.018349 37.350121,91.650452 
	C37.419746,99.265221 35.787266,107.206841 41.000000,114.000000 
z"/>
<path fill="#3CCE8E" opacity="1.000000" stroke="none" 
	d="
M41.444164,114.000000 
	C35.787266,107.206841 37.419746,99.265221 37.350121,91.650452 
	C37.252899,81.018349 37.378586,70.384209 37.651627,59.280651 
	C37.894360,58.810364 38.104103,58.770672 38.314537,58.723694 
	C38.768978,58.498928 38.933411,58.265095 39.479446,57.968254 
	C44.936199,57.979542 49.931774,57.997799 54.934837,58.483597 
	C54.947289,72.889626 54.990139,86.828255 54.937721,100.766510 
	C54.918011,106.009018 54.122330,111.000847 49.000000,114.000000 
	C46.629444,114.000000 44.258884,114.000000 41.444164,114.000000 
z"/>
<path fill="#02B579" opacity="1.000000" stroke="none" 
	d="
M75.000000,114.000000 
	C71.637901,114.000000 68.275795,114.000000 64.457001,113.531342 
	C63.999535,94.707474 63.998772,76.352264 64.452286,57.995781 
	C67.936501,57.993958 70.966446,57.993412 74.051720,58.408394 
	C74.404701,60.938416 74.951118,63.051807 74.960457,65.167572 
	C75.032333,81.444786 75.000000,97.722466 75.000000,114.000000 
z"/>
<path fill="#02AA70" opacity="1.000000" stroke="none" 
	d="
M75.458069,114.000000 
	C75.000000,97.722466 75.032333,81.444786 74.960457,65.167572 
	C74.951118,63.051807 74.404701,60.938416 74.506050,58.405273 
	C77.934601,57.986004 80.964149,57.985382 84.049789,58.401344 
	C84.403915,60.930164 84.947632,63.040966 84.960007,65.154877 
	C85.038651,78.594498 84.917786,92.035896 85.094803,105.473648 
	C85.119400,107.340874 86.422333,109.191246 87.133484,111.049423 
	C86.578758,111.850990 86.024033,112.652557 85.734650,113.727058 
	C82.638710,114.000000 79.277428,114.000000 75.458069,114.000000 
z"/>
<path fill="#03BF81" opacity="1.000000" stroke="none" 
	d="
M63.998009,57.997051 
	C63.998772,76.352264 63.999535,94.707474 64.000153,113.531342 
	C59.310745,114.000000 54.621487,114.000000 49.466118,114.000000 
	C54.122330,111.000847 54.918011,106.009018 54.937721,100.766510 
	C54.990139,86.828255 54.947289,72.889626 55.392723,58.477165 
	C58.561417,58.001141 61.279713,57.999096 63.998009,57.997051 
z"/>
<path fill="#0ABA7F" opacity="1.000000" stroke="none" 
	d="
M37.638611,14.045290 
	C36.274899,9.152547 37.484459,5.027124 41.162018,1.342971 
	C44.030594,1.000000 47.061188,1.000000 50.545891,1.000000 
	C53.023853,4.872074 55.904289,8.495457 54.128349,13.794260 
	C53.410839,14.794436 53.147320,15.339266 52.513462,15.966491 
	C47.759243,19.047756 43.415752,18.684704 39.059746,15.635693 
	C38.558231,14.934559 38.098419,14.489924 37.638611,14.045290 
z"/>
<path fill="#FAFAFA" opacity="1.000000" stroke="none" 
	d="
M362.980957,44.982185 
	C365.969177,38.824482 371.391846,37.359562 377.566132,37.591389 
	C384.671417,37.858166 390.550446,40.967289 392.830475,47.716225 
	C396.861176,59.647026 396.897369,72.012909 392.735870,83.915924 
	C390.394714,90.612221 384.496307,93.632828 377.395447,93.983643 
	C369.980927,94.349930 364.562988,91.462318 361.299194,84.353577 
	C361.299194,87.053131 361.299194,89.752678 361.299194,92.725861 
	C357.167725,92.725861 353.415009,92.725861 349.357178,92.725861 
	C349.357178,68.865509 349.357178,44.984703 349.357178,20.881809 
	C353.402283,20.881809 357.313202,20.881809 361.412079,20.881809 
	C361.412079,28.739836 361.412079,36.365242 361.179504,44.722260 
	C361.120605,46.213230 361.294342,46.972584 361.782898,49.107967 
	C362.458771,46.780464 362.719849,45.881325 362.980957,44.982185 
M382.899292,71.121635 
	C382.862244,66.627640 383.092834,62.111485 382.722870,57.645061 
	C382.220886,51.584141 377.997803,48.123951 371.913177,48.248482 
	C366.205109,48.365307 362.135651,52.008587 361.831848,57.842564 
	C361.555328,63.153187 361.553375,68.504402 361.864349,73.812302 
	C362.210144,79.714249 366.219421,83.137093 372.090027,83.128693 
	C378.587463,83.119392 382.018158,79.589806 382.899292,71.121635 
z"/>
<path fill="#F7F7F7" opacity="1.000000" stroke="none" 
	d="
M440.321289,85.104126 
	C435.071564,93.417702 425.233276,96.364006 416.113831,92.654503 
	C408.741058,89.655510 404.998901,82.151291 406.878418,73.784897 
	C408.535492,66.408585 413.713867,62.307701 420.723450,61.152206 
	C427.227722,60.080002 433.923126,60.167366 440.946533,59.717777 
	C441.395599,55.977802 441.880310,52.085548 438.006195,49.299522 
	C434.581665,46.836800 426.802917,46.842594 423.163879,49.222095 
	C417.132721,53.165775 417.132721,53.165775 408.838837,52.766434 
	C409.189240,45.880520 414.311768,39.968906 422.804779,38.538868 
	C428.240845,37.623554 434.160278,37.674545 439.548859,38.798512 
	C449.255280,40.823097 453.750519,47.196671 453.793854,57.068172 
	C453.845612,68.853729 453.806061,80.639694 453.806061,92.720474 
	C449.888489,92.720474 446.302094,92.720474 442.137573,92.720474 
	C442.137573,89.743301 442.137573,86.580238 442.137573,83.503502 
	C441.414124,83.429840 441.155975,83.355812 441.127136,83.408150 
	C440.886658,83.844406 440.688446,84.303947 440.321289,85.104126 
M434.469818,68.339233 
	C431.643158,68.401474 428.793793,68.260338 425.995117,68.572998 
	C421.650208,69.058365 418.969818,71.399559 418.905792,76.057014 
	C418.845032,80.473877 421.521790,83.402664 426.160126,84.041122 
	C436.758453,85.499939 442.310547,79.718544 440.721375,68.339310 
	C439.005707,68.339310 437.206482,68.339310 434.469818,68.339233 
z"/>
<path fill="#F9F9F9" opacity="1.000000" stroke="none" 
	d="
M247.054092,37.908653 
	C253.337845,38.552464 259.448547,38.478283 265.017273,40.178864 
	C271.109650,42.039352 274.958527,47.116100 275.109924,53.711876 
	C275.406830,66.647247 275.197205,79.594246 275.197205,92.771652 
	C271.383911,92.771652 267.796661,92.771652 263.854645,92.771652 
	C263.854645,89.702980 263.854645,86.640434 263.854645,82.112213 
	C262.062531,84.947433 261.170715,86.730850 259.940552,88.238106 
	C255.353378,93.858429 245.622055,95.766640 237.862320,92.691643 
	C231.270386,90.079414 227.589081,83.953506 228.062622,76.384338 
	C228.525497,68.985497 233.545731,62.775845 241.718292,61.292976 
	C248.507004,60.061195 255.539169,60.171207 262.789795,59.664005 
	C263.063446,55.595318 263.542206,51.347187 258.971680,48.977795 
	C254.194916,46.501480 248.460373,46.087841 244.855072,49.602093 
	C241.101532,53.260838 237.373810,52.840752 233.236511,52.929230 
	C232.252777,52.950272 231.268219,52.932350 230.254288,52.932350 
	C231.253525,44.819149 236.497559,40.102859 247.054092,37.908653 
M240.457153,76.440208 
	C240.751953,83.774353 247.960220,85.075592 254.087296,83.738647 
	C261.550323,82.110191 264.102753,77.339813 262.241150,68.327797 
	C258.850250,68.327797 255.384583,68.321358 251.918945,68.331383 
	C250.756470,68.334747 249.587967,68.312714 248.432800,68.418121 
	C243.952866,68.826889 240.881546,70.818497 240.457153,76.440208 
z"/>
<path fill="#F7F7F7" opacity="1.000000" stroke="none" 
	d="
M537.340393,40.156265 
	C543.397766,39.302116 549.163147,37.668423 554.789917,38.054451 
	C565.640808,38.798878 572.591309,46.448364 573.458679,57.324711 
	C573.747253,60.944035 573.504211,64.605759 573.504211,68.745979 
	C561.962769,68.745979 550.575134,68.745979 538.900940,68.745979 
	C538.460999,74.349960 538.570618,79.190651 543.671631,82.251060 
	C548.269531,85.009628 554.895813,83.645447 559.722717,81.012863 
	C563.319946,79.050957 568.034302,79.137199 572.802734,78.203270 
	C571.998352,84.094612 569.043884,87.484810 565.196960,89.760468 
	C555.590027,95.443504 545.595093,95.757835 535.761475,90.301270 
	C530.148071,87.186394 526.965942,82.005440 526.545715,75.687546 
	C526.105164,69.064194 526.106384,62.363548 526.563843,55.741539 
	C527.043579,48.797379 530.817383,43.624767 537.340393,40.156265 
M552.437195,60.529640 
	C555.326843,60.529640 558.216492,60.529640 561.061157,60.529640 
	C561.122742,51.388485 556.877869,46.966885 549.262085,47.425423 
	C541.986511,47.863476 538.290649,52.489407 539.173523,60.529587 
	C543.231934,60.529587 547.346069,60.529587 552.437195,60.529640 
z"/>
<path fill="#F9F9F9" opacity="1.000000" stroke="none" 
	d="
M169.545135,62.214340 
	C169.726959,41.657902 188.359161,30.860806 206.259094,40.477627 
	C212.649658,43.910980 216.005478,49.444534 216.697571,56.487171 
	C217.083160,60.410946 216.766846,64.403702 216.766846,68.823082 
	C205.137344,68.823082 193.741318,68.823082 182.151764,68.823082 
	C181.564545,74.436768 181.890823,79.238449 186.942062,82.274155 
	C191.556839,85.047539 198.129807,83.634171 202.960709,80.989113 
	C206.546158,79.025978 211.269516,79.141113 215.486008,78.330513 
	C215.921371,78.942558 216.356735,79.554604 216.792099,80.166649 
	C214.141479,83.306099 211.940125,87.033775 208.751678,89.469078 
	C200.808533,95.535965 186.910782,95.542114 178.532089,90.044006 
	C173.359436,86.649719 170.281586,81.839615 169.810944,75.650795 
	C169.483505,71.345383 169.617172,67.004906 169.545135,62.214340 
M188.090698,48.291985 
	C183.250336,50.825153 181.383820,54.815781 182.107239,60.218979 
	C189.634537,60.218979 196.989624,60.218979 204.328110,60.218979 
	C204.614746,50.086864 199.503845,46.182137 188.090698,48.291985 
z"/>
<path fill="#F8F8F8" opacity="1.000000" stroke="none" 
	d="
M502.378540,92.710068 
	C494.565399,92.910286 487.051331,93.668861 479.722900,92.821686 
	C472.267120,91.959770 467.923340,86.603645 466.881317,79.009827 
	C472.148499,79.715324 477.099640,77.524651 482.230560,82.439194 
	C486.420776,86.452660 493.324371,85.371552 498.799591,82.769806 
	C500.339661,82.037987 501.918549,79.268326 501.747131,77.612740 
	C501.551117,75.719421 499.772400,73.063553 498.063293,72.443947 
	C494.376556,71.107422 490.275177,70.953789 486.379944,70.141327 
	C482.977997,69.431763 479.467194,68.868362 476.285553,67.557983 
	C469.980621,64.961243 467.584961,59.734825 467.754303,53.123100 
	C467.919983,46.653229 470.733490,41.782394 476.875122,39.577423 
	C485.599792,36.445072 494.597565,36.445259 503.324371,39.427845 
	C508.756805,41.284500 512.529236,45.200699 513.477112,52.068851 
	C508.153870,51.193478 502.809082,54.172287 498.381012,48.771641 
	C496.165558,46.069580 485.702240,46.342991 482.548859,48.317665 
	C478.797821,50.666599 478.995148,56.187786 483.175842,57.960953 
	C485.868439,59.102970 488.960022,59.327389 491.887421,59.886436 
	C494.988220,60.478607 498.165710,60.756542 501.205536,61.563980 
	C509.551575,63.780895 513.778015,68.598938 514.156921,75.949478 
	C514.590271,84.354591 511.279877,89.180168 502.378540,92.710068 
z"/>
<path fill="#F6F6F6" opacity="1.000000" stroke="none" 
	d="
M145.293732,81.756104 
	C148.893051,81.755997 152.032883,81.755997 155.453003,81.755997 
	C155.453003,85.517914 155.453003,88.931267 155.453003,92.481827 
	C148.886154,92.481827 142.244797,93.136307 135.794296,92.306725 
	C128.646973,91.387512 124.104156,85.831161 123.810417,78.419281 
	C123.442047,69.124107 123.721748,59.803249 123.721748,50.069176 
	C118.598587,50.069176 113.842484,50.069176 108.734131,50.069176 
	C108.734131,46.098118 108.734131,42.548180 108.734131,38.640007 
	C113.465569,38.640007 118.066338,38.640007 123.259918,38.640007 
	C123.259918,32.945187 123.259918,27.559875 123.259918,21.911278 
	C127.756691,21.911278 131.662506,21.911278 135.914291,21.911278 
	C135.914291,27.314634 135.914291,32.581226 135.914291,38.434799 
	C142.929657,38.434799 149.624588,38.434799 156.512207,38.434799 
	C156.512207,42.447418 156.512207,45.864574 156.512207,49.667900 
	C149.729904,49.667900 143.149948,49.667900 136.062561,49.667900 
	C136.062561,59.124588 135.666138,68.230865 136.220032,77.278976 
	C136.523560,82.237396 141.172409,81.715858 145.293732,81.756104 
z"/>
<path fill="#FCFCFC" opacity="1.000000" stroke="none" 
	d="
M335.769226,81.783333 
	C337.016632,85.226509 337.786041,88.660278 338.835510,93.343979 
	C329.930908,92.932182 322.124847,93.230553 314.555542,92.032837 
	C307.214355,90.871216 303.104431,84.906494 302.952972,76.691345 
	C302.710602,63.544735 302.839020,50.391285 302.811707,37.240723 
	C302.808350,35.619724 302.811249,33.998711 302.811249,32.050659 
	C296.920105,32.050659 291.478088,32.050659 285.706665,32.050659 
	C285.706665,28.162928 285.706665,24.605694 285.706665,20.849398 
	C295.504395,20.849398 305.090851,20.849398 315.156586,20.849398 
	C315.156586,30.295057 315.156342,39.571529 315.156616,48.848003 
	C315.156860,57.171577 315.117798,65.495415 315.171509,73.818642 
	C315.211334,79.990891 317.031555,81.728012 323.305328,81.767838 
	C327.300476,81.793205 331.295929,81.773453 335.769226,81.783333 
z"/>
<path fill="#06CF8E" opacity="1.000000" stroke="none" 
	d="
M64.452286,57.995781 
	C61.279713,57.999096 58.561417,58.001141 55.385239,58.009621 
	C49.931774,57.997799 44.936199,57.979542 39.277626,58.039955 
	C38.355110,58.266090 38.184933,58.483437 38.104103,58.770672 
	C38.104103,58.770672 37.894360,58.810364 37.788536,58.821331 
	C33.724331,58.383255 29.765942,57.934212 25.384666,56.986702 
	C26.898582,51.706051 27.895815,46.924065 24.991508,41.920425 
	C25.064054,41.403500 25.087164,41.107716 25.093487,40.810623 
	C29.061670,40.486420 33.029854,40.162216 37.444019,39.513420 
	C37.889999,39.188824 38.107315,39.225002 38.199562,39.414070 
	C38.481487,39.830990 38.722450,39.970303 39.478271,40.028271 
	C44.289345,40.030792 48.636856,40.026108 53.324699,40.004524 
	C53.891586,39.970913 54.118141,39.954193 54.344696,39.937469 
	C65.237282,40.151291 76.129860,40.365108 87.603928,40.957897 
	C88.484619,41.586914 88.783821,41.836964 89.013969,42.458126 
	C86.690132,46.972687 85.928589,51.027870 89.324631,55.046814 
	C89.883751,55.708481 89.854828,56.867050 89.663971,57.842354 
	C87.484749,57.920742 85.739220,57.952751 83.993698,57.984760 
	C80.964149,57.985382 77.934601,57.986004 74.450722,57.989746 
	C70.966446,57.993412 67.936501,57.993958 64.452286,57.995781 
z"/>
<path fill="#01A069" opacity="1.000000" stroke="none" 
	d="
M84.049789,58.401344 
	C85.739220,57.952751 87.484749,57.920742 90.018097,57.888519 
	C91.899582,58.234470 92.993233,58.580627 93.779251,59.224991 
	C93.336655,65.454941 92.956367,71.397072 93.206917,77.312492 
	C93.288727,79.244125 95.013329,81.106178 95.986618,83.000046 
	C94.295174,90.590157 92.725624,98.211029 90.823708,105.748032 
	C90.367218,107.557007 88.806389,109.087311 87.443466,110.897598 
	C86.422333,109.191246 85.119400,107.340874 85.094803,105.473648 
	C84.917786,92.035896 85.038651,78.594498 84.960007,65.154877 
	C84.947632,63.040966 84.403915,60.930164 84.049789,58.401344 
z"/>
<path fill="#3ECF8E" opacity="1.000000" stroke="none" 
	d="
M52.984364,40.021423 
	C48.636856,40.026108 44.289345,40.030792 39.385185,39.831593 
	C38.665295,39.355095 38.424889,39.220856 38.107315,39.225002 
	C38.107315,39.225002 37.889999,39.188824 37.780136,39.184898 
	C37.586613,32.074333 37.502949,24.967691 37.795433,17.358593 
	C38.481541,16.534821 38.791496,16.213507 39.101456,15.892192 
	C43.415752,18.684704 47.759243,19.047756 52.671257,16.220242 
	C53.522625,16.611134 53.845863,16.830666 54.169106,17.050198 
	C54.243874,24.046350 54.318642,31.042501 54.031609,38.609108 
	C53.441330,39.460182 53.212849,39.740803 52.984364,40.021423 
z"/>
<path fill="#36C285" opacity="1.000000" stroke="none" 
	d="
M94.086891,58.926788 
	C92.993233,58.580627 91.899582,58.234470 90.451797,57.842144 
	C89.854828,56.867050 89.883751,55.708481 89.324631,55.046814 
	C85.928589,51.027870 86.690132,46.972687 89.314598,42.399445 
	C90.108421,41.571419 90.532555,41.173183 90.956688,40.774948 
	C97.481461,38.333160 101.679672,39.154198 104.645515,43.452061 
	C107.404076,47.449551 106.582939,52.190971 101.657776,57.625519 
	C98.741096,58.276539 96.413994,58.601665 94.086891,58.926788 
z"/>
<path fill="#029863" opacity="1.000000" stroke="none" 
	d="
M93.779251,59.224991 
	C96.413994,58.601665 98.741096,58.276539 101.457870,57.911247 
	C100.015778,66.024544 98.184021,74.178017 96.169434,82.665764 
	C95.013329,81.106178 93.288727,79.244125 93.206917,77.312492 
	C92.956367,71.397072 93.336655,65.454941 93.779251,59.224991 
z"/>
<path fill="#7E7E7E" opacity="1.000000" stroke="none" 
	d="
M362.700989,45.065453 
	C362.719849,45.881325 362.458771,46.780464 361.782898,49.107967 
	C361.294342,46.972584 361.120605,46.213230 361.129517,45.122757 
	C361.681732,44.910667 362.051392,45.029697 362.700989,45.065453 
z"/>
<path fill="#05E49C" opacity="1.000000" stroke="none" 
	d="
M90.581497,40.699280 
	C90.532555,41.173183 90.108421,41.571419 89.383659,42.028336 
	C88.783821,41.836964 88.484619,41.586914 88.057251,41.070759 
	C88.688171,40.744305 89.447235,40.683956 90.581497,40.699280 
z"/>
<path fill="#43E099" opacity="1.000000" stroke="none" 
	d="
M54.258659,16.676958 
	C53.845863,16.830666 53.522625,16.611134 53.041595,16.137848 
	C53.147320,15.339266 53.410839,14.794436 53.963211,14.129232 
	C54.284111,14.773811 54.316162,15.538764 54.258659,16.676958 
z"/>
<path fill="#43E099" opacity="1.000000" stroke="none" 
	d="
M53.324699,40.004524 
	C53.212849,39.740803 53.441330,39.460182 53.919708,39.063652 
	C54.228287,39.107365 54.286964,39.266979 54.345169,39.682034 
	C54.118141,39.954193 53.891586,39.970913 53.324699,40.004524 
z"/>
<path fill="#3CCB8B" opacity="1.000000" stroke="none" 
	d="
M24.958857,42.142876 
	C27.895815,46.924065 26.898582,51.706051 24.944456,56.834595 
	C23.469860,57.495125 21.997314,57.751808 20.558149,58.134132 
	C16.067640,59.327076 11.594904,58.610825 9.759758,54.379745 
	C8.428695,51.310879 8.349686,46.815922 9.603081,43.723087 
	C11.336562,39.445599 15.826157,38.644096 20.324194,39.741760 
	C20.969196,39.899162 21.590940,40.151875 22.667522,40.810875 
	C23.727350,41.555141 24.343103,41.849007 24.958857,42.142876 
z"/>
<path fill="#41DE98" opacity="1.000000" stroke="none" 
	d="
M39.059746,15.635693 
	C38.791496,16.213507 38.481541,16.534821 37.949577,16.914116 
	C37.635643,16.239370 37.543716,15.506644 37.545200,14.409604 
	C38.098419,14.489924 38.558231,14.934559 39.059746,15.635693 
z"/>
<path fill="#0ABA7F" opacity="1.000000" stroke="none" 
	d="
M24.991508,41.920425 
	C24.343103,41.849007 23.727350,41.555141 23.013786,41.016335 
	C23.411360,40.661575 23.906744,40.551754 24.747807,40.626278 
	C25.087164,41.107716 25.064054,41.403500 24.991508,41.920425 
z"/>
<path fill="#42DE98" opacity="1.000000" stroke="none" 
	d="
M38.314537,58.723694 
	C38.184933,58.483437 38.355110,58.266090 38.816456,58.046921 
	C38.933411,58.265095 38.768978,58.498928 38.314537,58.723694 
z"/>
<path fill="#050505" opacity="1.000000" stroke="none" 
	d="
M382.893311,71.570877 
	C382.018158,79.589806 378.587463,83.119392 372.090027,83.128693 
	C366.219421,83.137093 362.210144,79.714249 361.864349,73.812302 
	C361.553375,68.504402 361.555328,63.153187 361.831848,57.842564 
	C362.135651,52.008587 366.205109,48.365307 371.913177,48.248482 
	C377.997803,48.123951 382.220886,51.584141 382.722870,57.645061 
	C383.092834,62.111485 382.862244,66.627640 382.893311,71.570877 
z"/>
<path fill="#0A0A0A" opacity="1.000000" stroke="none" 
	d="
M434.938538,68.339272 
	C437.206482,68.339310 439.005707,68.339310 440.721375,68.339310 
	C442.310547,79.718544 436.758453,85.499939 426.160126,84.041122 
	C421.521790,83.402664 418.845032,80.473877 418.905792,76.057014 
	C418.969818,71.399559 421.650208,69.058365 425.995117,68.572998 
	C428.793793,68.260338 431.643158,68.401474 434.938538,68.339272 
z"/>
<path fill="#0B0B0B" opacity="1.000000" stroke="none" 
	d="
M240.458771,76.066818 
	C240.881546,70.818497 243.952866,68.826889 248.432800,68.418121 
	C249.587967,68.312714 250.756470,68.334747 251.918945,68.331383 
	C255.384583,68.321358 258.850250,68.327797 262.241150,68.327797 
	C264.102753,77.339813 261.550323,82.110191 254.087296,83.738647 
	C247.960220,85.075592 240.751953,83.774353 240.458771,76.066818 
z"/>
<path fill="#0F0F0F" opacity="1.000000" stroke="none" 
	d="
M551.948730,60.529613 
	C547.346069,60.529587 543.231934,60.529587 539.173523,60.529587 
	C538.290649,52.489407 541.986511,47.863476 549.262085,47.425423 
	C556.877869,46.966885 561.122742,51.388485 561.061157,60.529640 
	C558.216492,60.529640 555.326843,60.529640 551.948730,60.529613 
z"/>
<path fill="#111111" opacity="1.000000" stroke="none" 
	d="
M188.459137,48.167641 
	C199.503845,46.182137 204.614746,50.086864 204.328110,60.218979 
	C196.989624,60.218979 189.634537,60.218979 182.107239,60.218979 
	C181.383820,54.815781 183.250336,50.825153 188.459137,48.167641 
z"/>
<path fill="#41DE98" opacity="1.000000" stroke="none" 
	d="
M38.199562,39.414070 
	C38.424889,39.220856 38.665295,39.355095 38.921623,39.824390 
	C38.722450,39.970303 38.481487,39.830990 38.199562,39.414070 
z"/>
</svg>