<svg version="1.1" id="Layer_1" xmlns="http://www.w3.org/2000/svg" xmlns:xlink="http://www.w3.org/1999/xlink" x="0px" y="0px"
	 width="100%" viewBox="0 0 581 113" enable-background="new 0 0 581 113" xml:space="preserve">
<path fill="#FDFDFD" opacity="1.000000" stroke="none" 
	d="
M582.000000,89.000000 
	C582.000000,97.326370 582.000000,105.652748 582.000000,114.000000 
	C415.979095,114.000000 249.958206,114.000000 83.679024,113.772919 
	C84.120132,113.130836 84.819527,112.715828 85.837357,112.186707 
	C91.715935,108.109093 91.870636,101.850525 93.170380,95.651131 
	C93.754105,92.902138 94.001343,90.464409 94.568085,88.103378 
	C97.057915,77.730927 99.640068,67.380638 102.478363,56.835400 
	C103.854561,54.655010 105.582268,52.762791 105.915886,50.650398 
	C107.302307,41.871918 100.513458,37.497250 90.407883,40.593948 
	C78.203606,40.385513 66.440353,40.298405 54.684361,39.727684 
	C54.528572,30.811066 54.365532,22.378054 54.268295,13.508228 
	C55.277939,7.844872 53.572601,3.788944 49.000000,1.000000 
	C226.666672,1.000000 404.333344,1.000000 582.000000,1.000000 
	C582.000000,14.750114 582.000000,28.406399 581.644531,42.547359 
	C573.178894,36.764393 564.101013,36.275322 554.743408,39.082298 
	C546.281616,41.620564 541.282349,48.418240 540.926392,57.280373 
	C540.719299,62.436913 540.778687,67.609215 540.871277,72.771683 
	C541.065186,83.589828 547.143860,90.763809 557.738586,93.278938 
	C566.503723,95.359703 574.343079,92.857445 582.000000,89.000000 
M366.524414,93.007324 
	C369.462402,93.007324 372.400360,93.007324 375.787598,93.007324 
	C375.787598,89.753975 375.787598,87.061234 375.787598,84.368492 
	C378.351715,89.771027 382.224762,92.984879 387.916046,93.832870 
	C398.050598,95.342918 407.282623,89.757988 408.621399,79.655792 
	C409.830444,70.532745 409.774445,61.024376 408.686737,51.874897 
	C407.564301,42.433384 399.540283,37.143433 389.983978,37.559120 
	C383.533142,37.839725 378.867462,40.792931 375.783600,46.610180 
	C375.783600,38.033489 375.783600,29.456800 375.783600,21.048141 
	C371.592529,21.048141 367.699402,21.048141 363.665710,21.048141 
	C363.665710,44.230812 363.640594,67.042580 363.745819,89.853745 
	C363.750671,90.906853 364.924530,91.954567 366.524414,93.007324 
M287.626831,47.076172 
	C280.522888,36.763161 270.096161,36.604820 259.420654,38.360672 
	C251.117920,39.726265 245.948242,45.238125 244.700668,52.907734 
	C249.668930,52.171436 254.584030,54.573864 259.281799,49.606411 
	C262.685944,46.006844 268.603241,46.470558 273.409332,48.923275 
	C278.047333,51.290192 277.461395,55.583832 277.197266,60.185619 
	C272.845032,60.185619 268.685059,59.876812 264.593201,60.272511 
	C260.505646,60.667789 256.253967,61.183865 252.485641,62.681843 
	C244.772842,65.747810 241.420517,72.915543 242.918259,81.461319 
	C244.114365,88.286011 250.042389,93.243874 257.866455,93.884315 
	C266.685974,94.606255 273.802032,92.035149 278.114349,83.413246 
	C278.114349,86.465996 278.114349,89.518753 278.114349,92.681351 
	C282.218292,92.681351 285.918823,92.681351 289.835968,92.681351 
	C289.835968,79.709816 289.924927,67.071213 289.752747,54.436169 
	C289.722290,52.200241 288.603149,49.979153 287.626831,47.076172 
M434.558960,52.730038 
	C438.216919,47.896133 444.850250,46.021664 450.521729,48.219215 
	C454.966217,49.941334 456.249786,52.958542 455.363068,60.187962 
	C451.637848,60.187962 447.807983,59.861073 444.058899,60.271637 
	C439.488037,60.772198 434.723755,61.230236 430.510590,62.891895 
	C423.202576,65.774155 419.893372,72.890167 421.151886,80.847786 
	C422.267578,87.901962 427.896240,92.964912 435.600525,93.844238 
	C445.299866,94.951263 451.102448,91.979080 456.240234,82.911018 
	C456.421539,86.551514 456.578888,89.711296 456.727295,92.690720 
	C460.819244,92.690720 464.400421,92.690720 468.154053,92.690720 
	C468.154053,80.565239 468.182709,68.758415 468.145172,56.951797 
	C468.114197,47.209351 463.779419,41.359222 454.380768,38.769283 
	C447.310791,36.821056 440.187775,36.861450 433.357727,39.828140 
	C427.760162,42.259518 423.933350,46.270576 422.820953,52.887856 
	C426.755402,52.887856 430.242126,52.887856 434.558960,52.730038 
M186.812378,83.498001 
	C193.181046,92.635025 203.668396,96.113327 215.562576,93.033508 
	C223.725998,90.919708 229.310730,85.561630 229.934662,79.131248 
	C224.808212,79.407478 219.879578,78.283409 214.958786,82.155197 
	C210.865784,85.375648 204.995010,85.034431 200.415314,81.601486 
	C196.265213,78.490593 195.910828,73.926697 196.617172,68.827393 
	C208.224792,68.827393 219.502197,68.827393 231.149719,68.827393 
	C231.149719,64.550873 231.395264,60.581207 231.098221,56.652569 
	C230.493958,48.660294 226.480347,42.796787 219.021500,39.743301 
	C210.744797,36.355026 202.123947,36.225300 194.474213,40.802818 
	C190.644897,43.094246 186.545273,47.350307 185.528992,51.451565 
	C182.971542,61.772171 182.478867,72.494919 186.812378,83.498001 
M518.797913,62.441757 
	C512.764893,61.309147 506.726654,60.203266 500.700867,59.033363 
	C497.367950,58.386269 494.561646,57.031734 494.633545,53.013481 
	C494.710419,48.716873 497.702209,47.259663 501.309326,47.177917 
	C506.469818,47.060966 512.175476,45.561455 515.632751,51.489639 
	C515.904175,51.955059 517.150513,51.976528 517.947205,51.989235 
	C521.236206,52.041679 524.526489,52.011208 528.207336,52.011208 
	C527.043152,45.167576 523.168457,41.043850 517.278625,39.185112 
	C509.006897,36.574703 500.487762,36.613770 492.232086,39.295982 
	C485.270874,41.557632 481.769928,47.518417 482.347351,54.846428 
	C483.026520,63.465645 488.260376,68.260826 498.750305,69.886261 
	C503.177673,70.572281 507.768616,70.778755 511.956146,72.183846 
	C513.933167,72.847221 516.193604,75.731804 516.366394,77.775536 
	C516.515381,79.538811 514.288940,82.279716 512.413269,83.290504 
	C506.948578,86.235352 498.619965,84.457916 494.172668,80.132713 
	C493.560425,79.537285 492.553986,79.067162 491.712158,79.036972 
	C488.294556,78.914375 484.870026,78.986000 481.195496,78.986000 
	C482.421021,86.603203 486.698120,91.502121 493.331909,92.510201 
	C500.758270,93.638733 508.572357,93.701225 516.027100,92.743546 
	C523.636719,91.765968 527.908386,86.277496 528.756470,79.318192 
	C529.657288,71.925850 526.697510,66.644157 518.797913,62.441757 
M150.695862,76.997452 
	C150.695862,68.070808 150.695862,59.144157 150.695862,49.773445 
	C157.631622,49.773445 164.209274,49.773445 170.826019,49.773445 
	C170.826019,45.787865 170.826019,42.262688 170.826019,38.236610 
	C163.901855,38.236610 157.339966,38.236610 150.385559,38.236610 
	C150.385559,32.479290 150.385559,27.231211 150.385559,22.002451 
	C146.063782,22.002451 142.176605,22.002451 137.950241,22.002451 
	C137.950241,27.617115 137.950241,32.895199 137.950241,38.590645 
	C132.852631,38.590645 128.092072,38.590645 123.271568,38.590645 
	C123.271568,42.452465 123.271568,45.885628 123.271568,49.775093 
	C128.206436,49.775093 132.948151,49.775093 138.132477,49.775093 
	C138.132477,59.003876 137.967667,67.781937 138.178528,76.550972 
	C138.392288,85.440994 143.385361,91.723061 151.529053,92.610451 
	C157.562775,93.267929 163.725677,92.739761 169.858398,92.739761 
	C169.858398,89.010521 169.858398,85.478371 169.858398,81.784035 
	C165.364655,81.784035 161.151428,82.218460 157.094208,81.611008 
	C154.879990,81.279488 152.930069,79.182892 150.695862,76.997452 
M352.280121,91.988777 
	C352.280121,88.697662 352.280121,85.406548 352.280121,81.788918 
	C346.908905,81.788918 341.933014,81.856087 336.959808,81.770142 
	C331.922180,81.683083 330.007751,79.810173 329.883667,74.859901 
	C329.783630,70.868759 329.860992,66.873146 329.860901,62.879517 
	C329.860565,48.948734 329.860779,35.017948 329.860779,20.975201 
	C319.697510,20.975201 309.978271,20.975201 300.320129,20.975201 
	C300.320129,24.716730 300.320129,28.140301 300.320129,32.084438 
	C306.138794,32.084438 311.695435,32.084438 317.342194,32.084438 
	C317.342194,35.610893 317.325226,38.604481 317.345215,41.597820 
	C317.425140,53.574142 317.141876,65.568565 317.721619,77.520958 
	C318.190521,87.188385 324.244080,92.578087 333.927002,92.902100 
	C339.899994,93.101974 345.888245,92.846619 352.280121,91.988777 
z"/>
<path fill="#FEFFFF" opacity="1.000000" stroke="none" 
	d="
M43.000000,114.000000 
	C29.031153,114.000000 15.062306,114.000000 1.046730,114.000000 
	C1.046730,76.448349 1.046730,38.896629 1.046730,1.000000 
	C14.685630,1.000000 28.374157,1.000000 42.315769,1.261938 
	C37.798645,4.021038 36.533344,8.019568 37.482475,13.475139 
	C37.305500,22.672497 37.284603,31.428253 36.789555,40.276535 
	C31.936613,40.468342 27.557829,40.567619 22.796570,40.488411 
	C20.273434,40.087147 18.132767,39.864368 15.739661,39.537979 
	C14.997260,39.637093 14.507298,39.839817 13.668482,40.077011 
	C11.538097,42.528564 8.655385,44.747120 8.177239,47.399197 
	C6.613410,56.073139 13.561784,60.451031 23.556313,57.392712 
	C28.569683,57.872086 33.217110,58.256535 37.660019,59.090405 
	C37.401604,73.800278 37.499126,88.063766 37.213291,102.319572 
	C37.110485,107.447166 38.574154,111.340164 43.000000,114.000000 
z"/>
<path fill="#050505" opacity="1.000000" stroke="none" 
	d="
M582.000000,88.545891 
	C574.343079,92.857445 566.503723,95.359703 557.738586,93.278938 
	C547.143860,90.763809 541.065186,83.589828 540.871277,72.771683 
	C540.778687,67.609215 540.719299,62.436913 540.926392,57.280373 
	C541.282349,48.418240 546.281616,41.620564 554.743408,39.082298 
	C564.101013,36.275322 573.178894,36.764393 581.644531,43.016018 
	C582.000000,51.354233 582.000000,59.708466 581.533203,68.486542 
	C571.817139,68.910393 562.567810,68.910393 553.148315,68.910393 
	C552.899536,74.383591 553.072327,79.219627 557.912903,82.122818 
	C562.754883,85.026825 568.195374,84.980583 572.496033,81.780136 
	C575.621887,79.453995 578.583496,79.057671 582.000000,79.000000 
	C582.000000,82.030594 582.000000,85.061188 582.000000,88.545891 
M573.882385,60.551781 
	C574.527710,59.363541 575.813721,58.117886 575.713196,56.996498 
	C575.114258,50.313274 569.648926,46.526417 562.524231,47.566963 
	C555.779663,48.551998 552.489380,53.230118 553.662537,60.554321 
	C560.070435,60.554321 566.531799,60.554321 573.882385,60.551781 
z"/>
<path fill="#3DCF8E" opacity="1.000000" stroke="none" 
	d="
M43.428463,114.000000 
	C38.574154,111.340164 37.110485,107.447166 37.213291,102.319572 
	C37.499126,88.063766 37.401604,73.800278 37.684818,59.068115 
	C37.914127,58.596409 37.977562,58.622963 38.201950,58.640358 
	C38.718792,58.517586 38.907578,58.290874 39.459900,57.968071 
	C44.926605,57.979622 49.926125,58.000725 54.933949,58.488998 
	C54.947384,73.072090 54.805676,87.190376 55.031986,101.302757 
	C55.119003,106.728889 53.677475,111.031021 49.000000,114.000000 
	C47.285641,114.000000 45.571285,114.000000 43.428463,114.000000 
z"/>
<path fill="#02B579" opacity="1.000000" stroke="none" 
	d="
M75.000000,114.000000 
	C71.637901,114.000000 68.275795,114.000000 64.456993,113.531342 
	C63.999813,94.703690 63.999332,76.344696 64.453072,57.986622 
	C67.935867,57.986649 70.964447,57.985760 74.004929,58.408909 
	C74.344444,61.776669 74.937180,64.718765 74.955299,67.664398 
	C75.050362,83.109100 74.999901,98.554710 75.000000,114.000000 
z"/>
<path fill="#03BF81" opacity="1.000000" stroke="none" 
	d="
M63.998856,57.985710 
	C63.999332,76.344696 63.999813,94.703690 64.000145,113.531342 
	C59.310745,114.000000 54.621487,114.000000 49.466118,114.000000 
	C53.677475,111.031021 55.119003,106.728889 55.031986,101.302757 
	C54.805676,87.190376 54.947384,73.072090 55.348717,58.478371 
	C58.503071,57.995621 61.250961,57.990665 63.998856,57.985710 
z"/>
<path fill="#02AB71" opacity="1.000000" stroke="none" 
	d="
M75.444168,114.000000 
	C74.999901,98.554710 75.050362,83.109100 74.955299,67.664398 
	C74.937180,64.718765 74.344444,61.776669 74.455399,58.405834 
	C77.593269,57.977867 80.292580,57.977005 83.046570,58.393929 
	C83.400841,60.920383 83.948105,63.027676 83.959877,65.137955 
	C84.037544,79.058495 83.945168,92.980148 84.067276,106.900047 
	C84.083107,108.704414 85.012634,110.500763 85.518929,112.300827 
	C84.819527,112.715828 84.120132,113.130836 83.210365,113.772919 
	C80.629440,114.000000 78.258888,114.000000 75.444168,114.000000 
z"/>
<path fill="#FBFBFB" opacity="1.000000" stroke="none" 
	d="
M582.000000,78.545891 
	C578.583496,79.057671 575.621887,79.453995 572.496033,81.780136 
	C568.195374,84.980583 562.754883,85.026825 557.912903,82.122818 
	C553.072327,79.219627 552.899536,74.383591 553.148315,68.910393 
	C562.567810,68.910393 571.817139,68.910393 581.533203,68.955200 
	C582.000000,72.030594 582.000000,75.061188 582.000000,78.545891 
z"/>
<path fill="#07D491" opacity="1.000000" stroke="none" 
	d="
M37.638561,13.033538 
	C36.533344,8.019568 37.798645,4.021038 42.784428,1.261938 
	C44.714359,1.000000 46.428715,1.000000 48.571537,1.000000 
	C53.572601,3.788944 55.277939,7.844872 53.945351,13.675756 
	C47.140511,19.972315 41.441891,19.526049 37.638561,13.033538 
z"/>
<path fill="#060606" opacity="1.000000" stroke="none" 
	d="
M366.039185,93.006058 
	C364.924530,91.954567 363.750671,90.906853 363.745819,89.853745 
	C363.640594,67.042580 363.665710,44.230812 363.665710,21.048141 
	C367.699402,21.048141 371.592529,21.048141 375.783600,21.048141 
	C375.783600,29.456800 375.783600,38.033489 375.783600,46.610180 
	C378.867462,40.792931 383.533142,37.839725 389.983978,37.559120 
	C399.540283,37.143433 407.564301,42.433384 408.686737,51.874897 
	C409.774445,61.024376 409.830444,70.532745 408.621399,79.655792 
	C407.282623,89.757988 398.050598,95.342918 387.916046,93.832870 
	C382.224762,92.984879 378.351715,89.771027 375.787598,84.368492 
	C375.787598,87.061234 375.787598,89.753975 375.787598,93.007324 
	C372.400360,93.007324 369.462402,93.007324 366.039185,93.006058 
M379.702026,80.905174 
	C388.865204,86.236542 397.041595,81.912781 397.311066,71.527283 
	C397.423035,67.211395 397.448517,62.882137 397.243896,58.571747 
	C396.925079,51.854786 392.864960,48.080750 386.416992,48.212856 
	C380.415100,48.335819 376.397827,52.318729 376.128693,58.730686 
	C375.940674,63.208847 375.720367,67.740936 376.209503,72.172218 
	C376.519531,74.980843 378.105957,77.648582 379.702026,80.905174 
z"/>
<path fill="#080808" opacity="1.000000" stroke="none" 
	d="
M287.806763,47.413692 
	C288.603149,49.979153 289.722290,52.200241 289.752747,54.436169 
	C289.924927,67.071213 289.835968,79.709816 289.835968,92.681351 
	C285.918823,92.681351 282.218292,92.681351 278.114349,92.681351 
	C278.114349,89.518753 278.114349,86.465996 278.114349,83.413246 
	C273.802032,92.035149 266.685974,94.606255 257.866455,93.884315 
	C250.042389,93.243874 244.114365,88.286011 242.918259,81.461319 
	C241.420517,72.915543 244.772842,65.747810 252.485641,62.681843 
	C256.253967,61.183865 260.505646,60.667789 264.593201,60.272511 
	C268.685059,59.876812 272.845032,60.185619 277.197266,60.185619 
	C277.461395,55.583832 278.047333,51.290192 273.409332,48.923275 
	C268.603241,46.470558 262.685944,46.006844 259.281799,49.606411 
	C254.584030,54.573864 249.668930,52.171436 244.700668,52.907734 
	C245.948242,45.238125 251.117920,39.726265 259.420654,38.360672 
	C270.096161,36.604820 280.522888,36.763161 287.806763,47.413692 
M259.904449,69.000046 
	C255.560440,70.657249 254.287247,74.051010 255.221390,78.217361 
	C256.155792,82.384995 259.387787,83.918655 263.391052,84.144867 
	C273.786957,84.732323 278.445343,79.470428 276.973663,68.805267 
	C271.550079,68.805267 266.126526,68.805267 259.904449,69.000046 
z"/>
<path fill="#060606" opacity="1.000000" stroke="none" 
	d="
M434.143921,52.808945 
	C430.242126,52.887856 426.755402,52.887856 422.820953,52.887856 
	C423.933350,46.270576 427.760162,42.259518 433.357727,39.828140 
	C440.187775,36.861450 447.310791,36.821056 454.380768,38.769283 
	C463.779419,41.359222 468.114197,47.209351 468.145172,56.951797 
	C468.182709,68.758415 468.154053,80.565239 468.154053,92.690720 
	C464.400421,92.690720 460.819244,92.690720 456.727295,92.690720 
	C456.578888,89.711296 456.421539,86.551514 456.240234,82.911018 
	C451.102448,91.979080 445.299866,94.951263 435.600525,93.844238 
	C427.896240,92.964912 422.267578,87.901962 421.151886,80.847786 
	C419.893372,72.890167 423.202576,65.774155 430.510590,62.891895 
	C434.723755,61.230236 439.488037,60.772198 444.058899,60.271637 
	C447.807983,59.861073 451.637848,60.187962 455.363068,60.187962 
	C456.249786,52.958542 454.966217,49.941334 450.521729,48.219215 
	C444.850250,46.021664 438.216919,47.896133 434.143921,52.808945 
M433.355164,74.892593 
	C433.045288,78.722748 434.187744,81.920692 437.999725,83.289986 
	C443.145050,85.138214 448.183197,84.487228 452.532196,81.111343 
	C456.833771,77.772270 456.136078,73.142540 455.439880,68.340195 
	C450.671143,68.340195 446.219299,68.211105 441.778687,68.379120 
	C437.895966,68.526031 434.628876,69.860863 433.355164,74.892593 
z"/>
<path fill="#060606" opacity="1.000000" stroke="none" 
	d="
M186.616730,83.174789 
	C182.478867,72.494919 182.971542,61.772171 185.528992,51.451565 
	C186.545273,47.350307 190.644897,43.094246 194.474213,40.802818 
	C202.123947,36.225300 210.744797,36.355026 219.021500,39.743301 
	C226.480347,42.796787 230.493958,48.660294 231.098221,56.652569 
	C231.395264,60.581207 231.149719,64.550873 231.149719,68.827393 
	C219.502197,68.827393 208.224792,68.827393 196.617172,68.827393 
	C195.910828,73.926697 196.265213,78.490593 200.415314,81.601486 
	C204.995010,85.034431 210.865784,85.375648 214.958786,82.155197 
	C219.879578,78.283409 224.808212,79.407478 229.934662,79.131248 
	C229.310730,85.561630 223.725998,90.919708 215.562576,93.033508 
	C203.668396,96.113327 193.181046,92.635025 186.616730,83.174789 
M198.710449,51.292004 
	C197.720337,54.121014 196.730225,56.950024 195.577194,60.244560 
	C204.091110,60.244560 211.459381,60.244560 219.019424,60.244560 
	C219.307159,55.116447 218.161423,50.830612 213.496368,48.703514 
	C208.490860,46.421185 203.483597,46.664574 198.710449,51.292004 
z"/>
<path fill="#070707" opacity="1.000000" stroke="none" 
	d="
M519.144653,62.613335 
	C526.697510,66.644157 529.657288,71.925850 528.756470,79.318192 
	C527.908386,86.277496 523.636719,91.765968 516.027100,92.743546 
	C508.572357,93.701225 500.758270,93.638733 493.331909,92.510201 
	C486.698120,91.502121 482.421021,86.603203 481.195496,78.986000 
	C484.870026,78.986000 488.294556,78.914375 491.712158,79.036972 
	C492.553986,79.067162 493.560425,79.537285 494.172668,80.132713 
	C498.619965,84.457916 506.948578,86.235352 512.413269,83.290504 
	C514.288940,82.279716 516.515381,79.538811 516.366394,77.775536 
	C516.193604,75.731804 513.933167,72.847221 511.956146,72.183846 
	C507.768616,70.778755 503.177673,70.572281 498.750305,69.886261 
	C488.260376,68.260826 483.026520,63.465645 482.347351,54.846428 
	C481.769928,47.518417 485.270874,41.557632 492.232086,39.295982 
	C500.487762,36.613770 509.006897,36.574703 517.278625,39.185112 
	C523.168457,41.043850 527.043152,45.167576 528.207336,52.011208 
	C524.526489,52.011208 521.236206,52.041679 517.947205,51.989235 
	C517.150513,51.976528 515.904175,51.955059 515.632751,51.489639 
	C512.175476,45.561455 506.469818,47.060966 501.309326,47.177917 
	C497.702209,47.259663 494.710419,48.716873 494.633545,53.013481 
	C494.561646,57.031734 497.367950,58.386269 500.700867,59.033363 
	C506.726654,60.203266 512.764893,61.309147 519.144653,62.613335 
z"/>
<path fill="#090909" opacity="1.000000" stroke="none" 
	d="
M150.778412,77.439880 
	C152.930069,79.182892 154.879990,81.279488 157.094208,81.611008 
	C161.151428,82.218460 165.364655,81.784035 169.858398,81.784035 
	C169.858398,85.478371 169.858398,89.010521 169.858398,92.739761 
	C163.725677,92.739761 157.562775,93.267929 151.529053,92.610451 
	C143.385361,91.723061 138.392288,85.440994 138.178528,76.550972 
	C137.967667,67.781937 138.132477,59.003876 138.132477,49.775093 
	C132.948151,49.775093 128.206436,49.775093 123.271568,49.775093 
	C123.271568,45.885628 123.271568,42.452465 123.271568,38.590645 
	C128.092072,38.590645 132.852631,38.590645 137.950241,38.590645 
	C137.950241,32.895199 137.950241,27.617115 137.950241,22.002451 
	C142.176605,22.002451 146.063782,22.002451 150.385559,22.002451 
	C150.385559,27.231211 150.385559,32.479290 150.385559,38.236610 
	C157.339966,38.236610 163.901855,38.236610 170.826019,38.236610 
	C170.826019,42.262688 170.826019,45.787865 170.826019,49.773445 
	C164.209274,49.773445 157.631622,49.773445 150.695862,49.773445 
	C150.695862,59.144157 150.695862,68.070808 150.778412,77.439880 
z"/>
<path fill="#090909" opacity="1.000000" stroke="none" 
	d="
M352.074890,92.392212 
	C345.888245,92.846619 339.899994,93.101974 333.927002,92.902100 
	C324.244080,92.578087 318.190521,87.188385 317.721619,77.520958 
	C317.141876,65.568565 317.425140,53.574142 317.345215,41.597820 
	C317.325226,38.604481 317.342194,35.610893 317.342194,32.084438 
	C311.695435,32.084438 306.138794,32.084438 300.320129,32.084438 
	C300.320129,28.140301 300.320129,24.716730 300.320129,20.975201 
	C309.978271,20.975201 319.697510,20.975201 329.860779,20.975201 
	C329.860779,35.017948 329.860565,48.948734 329.860901,62.879517 
	C329.860992,66.873146 329.783630,70.868759 329.883667,74.859901 
	C330.007751,79.810173 331.922180,81.683083 336.959808,81.770142 
	C341.933014,81.856087 346.908905,81.788918 352.280121,81.788918 
	C352.280121,85.406548 352.280121,88.697662 352.074890,92.392212 
z"/>
<path fill="#05D491" opacity="1.000000" stroke="none" 
	d="
M82.991882,57.976147 
	C80.292580,57.977005 77.593269,57.977867 74.443497,57.981800 
	C70.964447,57.985760 67.935867,57.986649 64.453072,57.986626 
	C61.250961,57.990665 58.503071,57.995621 55.340408,58.011204 
	C49.926125,58.000725 44.926605,57.979622 39.262321,58.032181 
	C38.329887,58.205147 38.123226,58.377522 37.977562,58.622963 
	C37.977562,58.622963 37.914127,58.596409 37.889328,58.618698 
	C33.217110,58.256535 28.569683,57.872086 23.620468,57.099754 
	C28.329866,50.898483 28.301737,47.666138 23.179043,40.666893 
	C27.557829,40.567619 31.936613,40.468342 37.153847,40.425926 
	C43.553902,40.392292 49.115501,40.301796 54.677105,40.211296 
	C66.440353,40.298405 78.203606,40.385513 90.324295,40.882004 
	C86.197517,46.410622 85.951012,49.027103 89.270180,54.920147 
	C89.737701,55.750202 89.878258,56.764412 89.726395,57.766228 
	C87.185722,57.884766 85.088799,57.930458 82.991882,57.976147 
z"/>
<path fill="#4ED59A" opacity="1.000000" stroke="none" 
	d="
M54.684361,39.727688 
	C49.115501,40.301796 43.553902,40.392292 37.628006,40.333397 
	C37.284603,31.428253 37.305500,22.672497 37.482475,13.475139 
	C41.441891,19.526049 47.140511,19.972315 53.879539,14.112570 
	C54.365532,22.378054 54.528572,30.811066 54.684361,39.727688 
z"/>
<path fill="#03A26B" opacity="1.000000" stroke="none" 
	d="
M83.046570,58.393929 
	C85.088799,57.930458 87.185722,57.884766 89.931053,57.825497 
	C90.579468,57.811920 90.999054,57.895866 91.047058,58.322109 
	C91.396706,66.693428 91.645111,74.641022 92.020767,82.582596 
	C92.232529,87.059425 92.653969,91.526321 92.980957,95.997696 
	C91.870636,101.850525 91.715935,108.109093 85.837357,112.186707 
	C85.012634,110.500763 84.083107,108.704414 84.067276,106.900047 
	C83.945168,92.980148 84.037544,79.058495 83.959877,65.137955 
	C83.948105,63.027676 83.400841,60.920383 83.046570,58.393929 
z"/>
<path fill="#41D090" opacity="1.000000" stroke="none" 
	d="
M90.999054,57.895866 
	C90.999054,57.895866 90.579468,57.811920 90.374817,57.752651 
	C89.878258,56.764412 89.737701,55.750202 89.270180,54.920147 
	C85.951012,49.027103 86.197517,46.410622 90.765335,41.003334 
	C100.513458,37.497250 107.302307,41.871918 105.915886,50.650398 
	C105.582268,52.762791 103.854561,54.655010 102.077362,56.964485 
	C97.924179,57.485619 94.461617,57.690742 90.999054,57.895866 
z"/>
<path fill="#069C66" opacity="1.000000" stroke="none" 
	d="
M91.047058,58.322113 
	C94.461617,57.690742 97.924179,57.485619 101.787750,57.151405 
	C99.640068,67.380638 97.057915,77.730927 94.568085,88.103378 
	C94.001343,90.464409 93.754105,92.902138 93.170380,95.651131 
	C92.653969,91.526321 92.232529,87.059425 92.020767,82.582596 
	C91.645111,74.641022 91.396706,66.693428 91.047058,58.322113 
z"/>
<path fill="#4FD499" opacity="1.000000" stroke="none" 
	d="
M22.796570,40.488411 
	C28.301737,47.666138 28.329866,50.898483 23.254520,57.004829 
	C13.561784,60.451031 6.613410,56.073139 8.177239,47.399197 
	C8.655385,44.747120 11.538097,42.528564 13.803396,40.283005 
	C14.855478,40.183552 15.423789,39.912571 15.992100,39.641590 
	C18.132767,39.864368 20.273434,40.087147 22.796570,40.488411 
z"/>
<path fill="#4ED59A" opacity="1.000000" stroke="none" 
	d="
M15.739660,39.537979 
	C15.423789,39.912571 14.855478,40.183552 14.152252,40.248539 
	C14.507298,39.839817 14.997260,39.637093 15.739660,39.537979 
z"/>
<path fill="#EEEEEE" opacity="1.000000" stroke="none" 
	d="
M573.437805,60.553051 
	C566.531799,60.554321 560.070435,60.554321 553.662537,60.554321 
	C552.489380,53.230118 555.779663,48.551998 562.524231,47.566963 
	C569.648926,46.526417 575.114258,50.313274 575.713196,56.996498 
	C575.813721,58.117886 574.527710,59.363541 573.437805,60.553051 
z"/>
<path fill="#2CCD88" opacity="1.000000" stroke="none" 
	d="
M38.201950,58.640358 
	C38.123226,58.377522 38.329887,58.205147 38.795128,58.041733 
	C38.907578,58.290874 38.718792,58.517586 38.201950,58.640358 
z"/>
<path fill="#FAFAFA" opacity="1.000000" stroke="none" 
	d="
M379.410980,80.642334 
	C378.105957,77.648582 376.519531,74.980843 376.209503,72.172218 
	C375.720367,67.740936 375.940674,63.208847 376.128693,58.730686 
	C376.397827,52.318729 380.415100,48.335819 386.416992,48.212856 
	C392.864960,48.080750 396.925079,51.854786 397.243896,58.571747 
	C397.448517,62.882137 397.423035,67.211395 397.311066,71.527283 
	C397.041595,81.912781 388.865204,86.236542 379.410980,80.642334 
z"/>
<path fill="#F6F6F6" opacity="1.000000" stroke="none" 
	d="
M260.303711,68.902657 
	C266.126526,68.805267 271.550079,68.805267 276.973877,68.798508 
	C278.445343,79.470428 273.786957,84.732323 263.391052,84.144867 
	C259.387787,83.918655 256.155792,82.384995 255.221390,78.217361 
	C254.287247,74.051010 255.560440,70.657249 260.303711,68.902657 
z"/>
<path fill="#F3F3F3" opacity="1.000000" stroke="none" 
	d="
M433.451965,74.522415 
	C434.628876,69.860863 437.895966,68.526031 441.778687,68.379120 
	C446.219299,68.211105 450.671143,68.340195 455.439880,68.340195 
	C456.136078,73.142540 456.833771,77.772270 452.532196,81.111343 
	C448.183197,84.487228 443.145050,85.138214 437.999725,83.289986 
	C434.187744,81.920692 433.045288,78.722748 433.451965,74.522415 
z"/>
<path fill="#EEEEEE" opacity="1.000000" stroke="none" 
	d="
M198.949127,50.999023 
	C203.483597,46.664574 208.490860,46.421185 213.496368,48.703514 
	C218.161423,50.830612 219.307159,55.116447 219.019424,60.244560 
	C211.459381,60.244560 204.091110,60.244560 195.577194,60.244560 
	C196.730225,56.950024 197.720337,54.121014 198.949127,50.999023 
z"/>
</svg>